<svg xmlns="http://www.w3.org/2000/svg" xmlns:xlink="http://www.w3.org/1999/xlink" width="1080" zoomAndPan="magnify" viewBox="0 0 810 809.999993" height="1080" preserveAspectRatio="xMidYMid meet" version="1.0"><defs><g/></defs><rect x="-81" width="972" fill="#ffffff" y="-80.999999" height="971.999992" fill-opacity="1"/><rect x="-81" width="972" fill="#000000" y="-80.999999" height="971.999992" fill-opacity="1"/><g fill="#ffffff" fill-opacity="1"><g transform="translate(112.190509, 483.993611)"><g><path d="M 133.03125 -33.203125 C 135.476562 -33.203125 137.488281 -32.410156 139.0625 -30.828125 C 140.644531 -29.242188 141.4375 -27.304688 141.4375 -25.015625 L 141.4375 -3.671875 C 141.4375 -2.660156 141.078125 -1.796875 140.359375 -1.078125 C 139.640625 -0.359375 138.78125 0 137.78125 0 L 133.03125 0 C 130.726562 0 128.785156 -0.820312 127.203125 -2.46875 C 125.628906 -4.125 124.84375 -6.101562 124.84375 -8.40625 L 124.84375 -29.328125 C 124.84375 -31.910156 123.472656 -33.203125 120.734375 -33.203125 L 116.421875 -33.203125 C 114.128906 -33.203125 112.191406 -34.023438 110.609375 -35.671875 C 109.023438 -37.328125 108.234375 -39.304688 108.234375 -41.609375 L 108.234375 -58.21875 C 108.234375 -55.914062 107.441406 -53.9375 105.859375 -52.28125 C 104.285156 -50.632812 102.273438 -49.8125 99.828125 -49.8125 L 29.328125 -49.8125 C 26.585938 -49.8125 25.21875 -48.515625 25.21875 -45.921875 L 25.21875 -8.40625 C 25.21875 -6.101562 24.425781 -4.125 22.84375 -2.46875 C 21.269531 -0.820312 19.332031 0 17.03125 0 L 12.296875 0 C 11.285156 0 10.421875 -0.359375 9.703125 -1.078125 C 8.984375 -1.796875 8.625 -2.660156 8.625 -3.671875 L 8.625 -41.609375 C 8.625 -43.910156 9.445312 -45.851562 11.09375 -47.4375 C 12.75 -49.019531 14.726562 -49.8125 17.03125 -49.8125 L 21.34375 -49.8125 C 22.488281 -49.8125 23.421875 -50.238281 24.140625 -51.09375 C 24.859375 -51.957031 25.21875 -52.894531 25.21875 -53.90625 L 25.21875 -91.421875 C 25.21875 -93.722656 26.046875 -95.660156 27.703125 -97.234375 C 29.359375 -98.816406 31.335938 -99.609375 33.640625 -99.609375 L 37.953125 -99.609375 C 39.097656 -99.609375 40.03125 -100.039062 40.75 -100.90625 C 41.46875 -101.769531 41.828125 -102.703125 41.828125 -103.703125 L 41.828125 -141.21875 C 41.828125 -143.519531 42.648438 -145.460938 44.296875 -147.046875 C 45.953125 -148.628906 47.929688 -149.421875 50.234375 -149.421875 L 54.546875 -149.421875 C 57.140625 -149.421875 58.4375 -150.785156 58.4375 -153.515625 L 58.4375 -157.828125 C 58.4375 -160.128906 59.222656 -162.066406 60.796875 -163.640625 C 62.378906 -165.222656 64.320312 -166.015625 66.625 -166.015625 L 83.21875 -166.015625 C 85.664062 -166.015625 87.679688 -165.222656 89.265625 -163.640625 C 90.847656 -162.066406 91.640625 -160.128906 91.640625 -157.828125 L 91.640625 -136.90625 C 91.640625 -134.175781 92.929688 -132.8125 95.515625 -132.8125 L 99.828125 -132.8125 C 102.273438 -132.8125 104.285156 -132.019531 105.859375 -130.4375 C 107.441406 -128.863281 108.234375 -126.925781 108.234375 -124.625 L 108.234375 -87.109375 C 108.234375 -86.097656 108.628906 -85.160156 109.421875 -84.296875 C 110.210938 -83.441406 111.109375 -83.015625 112.109375 -83.015625 L 116.421875 -83.015625 C 118.867188 -83.015625 120.882812 -82.222656 122.46875 -80.640625 C 124.050781 -79.054688 124.84375 -77.113281 124.84375 -74.8125 L 124.84375 -37.296875 C 124.84375 -36.296875 125.234375 -35.363281 126.015625 -34.5 C 126.804688 -33.632812 127.707031 -33.203125 128.71875 -33.203125 Z M 104.578125 -66.40625 C 105.578125 -66.40625 106.4375 -66.765625 107.15625 -67.484375 C 107.875 -68.203125 108.234375 -69.066406 108.234375 -70.078125 L 108.234375 -79.125 C 108.234375 -81.71875 106.867188 -83.015625 104.140625 -83.015625 L 99.828125 -83.015625 C 97.523438 -83.015625 95.582031 -83.835938 94 -85.484375 C 92.425781 -87.140625 91.640625 -89.117188 91.640625 -91.421875 L 91.640625 -128.9375 C 91.640625 -130.082031 91.28125 -131.015625 90.5625 -131.734375 C 89.84375 -132.453125 88.90625 -132.8125 87.75 -132.8125 L 83.21875 -132.8125 C 80.925781 -132.8125 78.988281 -133.640625 77.40625 -135.296875 C 75.820312 -136.953125 75.03125 -138.925781 75.03125 -141.21875 L 75.03125 -145.75 C 75.03125 -146.90625 74.671875 -147.804688 73.953125 -148.453125 C 73.234375 -149.097656 72.367188 -149.421875 71.359375 -149.421875 L 62.3125 -149.421875 C 61.300781 -149.421875 60.398438 -149.0625 59.609375 -148.34375 C 58.828125 -147.625 58.4375 -146.6875 58.4375 -145.53125 L 58.4375 -108.015625 C 58.4375 -105.722656 57.644531 -103.75 56.0625 -102.09375 C 54.476562 -100.4375 52.535156 -99.609375 50.234375 -99.609375 L 45.703125 -99.609375 C 44.703125 -99.609375 43.804688 -99.25 43.015625 -98.53125 C 42.222656 -97.8125 41.828125 -96.878906 41.828125 -95.734375 L 41.828125 -70.078125 C 41.828125 -69.066406 42.1875 -68.203125 42.90625 -67.484375 C 43.625 -66.765625 44.488281 -66.40625 45.5 -66.40625 Z M 104.578125 -66.40625 "/></g></g></g><g fill="#ffffff" fill-opacity="1"><g transform="translate(262.248239, 483.993611)"><g><path d="M 133.03125 -132.8125 C 135.476562 -132.8125 137.488281 -131.984375 139.0625 -130.328125 C 140.644531 -128.679688 141.4375 -126.707031 141.4375 -124.40625 L 141.4375 -119.65625 C 141.4375 -118.65625 141.078125 -117.832031 140.359375 -117.1875 C 139.640625 -116.539062 138.78125 -116.21875 137.78125 -116.21875 L 133.03125 -116.21875 C 130.726562 -116.21875 128.785156 -117.003906 127.203125 -118.578125 C 125.628906 -120.160156 124.84375 -122.101562 124.84375 -124.40625 L 124.84375 -128.71875 C 124.84375 -129.863281 124.484375 -130.832031 123.765625 -131.625 C 123.046875 -132.414062 122.109375 -132.8125 120.953125 -132.8125 L 116.640625 -132.8125 C 114.335938 -132.8125 112.359375 -133.601562 110.703125 -135.1875 C 109.054688 -136.769531 108.234375 -138.710938 108.234375 -141.015625 L 108.234375 -145.328125 C 108.234375 -146.472656 107.875 -147.441406 107.15625 -148.234375 C 106.4375 -149.023438 105.503906 -149.421875 104.359375 -149.421875 L 45.5 -149.421875 C 44.488281 -149.421875 43.625 -149.0625 42.90625 -148.34375 C 42.1875 -147.625 41.828125 -146.757812 41.828125 -145.75 L 41.828125 -141.015625 C 41.828125 -138.710938 41.035156 -136.769531 39.453125 -135.1875 C 37.867188 -133.601562 35.929688 -132.8125 33.640625 -132.8125 L 29.328125 -132.8125 C 28.171875 -132.8125 27.195312 -132.414062 26.40625 -131.625 C 25.613281 -130.832031 25.21875 -129.863281 25.21875 -128.71875 L 25.21875 -37.078125 C 25.21875 -34.492188 26.585938 -33.203125 29.328125 -33.203125 L 33.640625 -33.203125 C 35.929688 -33.203125 37.867188 -32.410156 39.453125 -30.828125 C 41.035156 -29.242188 41.828125 -27.234375 41.828125 -24.796875 L 41.828125 -20.484375 C 41.828125 -17.898438 43.191406 -16.609375 45.921875 -16.609375 L 104.359375 -16.609375 C 105.503906 -16.609375 106.4375 -17 107.15625 -17.78125 C 107.875 -18.570312 108.234375 -19.472656 108.234375 -20.484375 L 108.234375 -24.796875 C 108.234375 -27.234375 109.054688 -29.242188 110.703125 -30.828125 C 112.359375 -32.410156 114.335938 -33.203125 116.640625 -33.203125 L 120.953125 -33.203125 C 122.109375 -33.203125 123.046875 -33.597656 123.765625 -34.390625 C 124.484375 -35.179688 124.84375 -36.078125 124.84375 -37.078125 L 124.84375 -41.390625 C 124.84375 -43.835938 125.628906 -45.851562 127.203125 -47.4375 C 128.785156 -49.019531 130.726562 -49.8125 133.03125 -49.8125 L 137.78125 -49.8125 C 138.78125 -49.8125 139.640625 -49.453125 140.359375 -48.734375 C 141.078125 -48.015625 141.4375 -47.148438 141.4375 -46.140625 L 141.4375 -41.390625 C 141.4375 -39.097656 140.644531 -37.160156 139.0625 -35.578125 C 137.488281 -33.992188 135.476562 -33.203125 133.03125 -33.203125 L 128.71875 -33.203125 C 126.132812 -33.203125 124.84375 -31.835938 124.84375 -29.109375 L 124.84375 -24.796875 C 124.84375 -22.492188 124.050781 -20.550781 122.46875 -18.96875 C 120.882812 -17.394531 118.941406 -16.609375 116.640625 -16.609375 L 112.109375 -16.609375 C 109.523438 -16.609375 108.234375 -15.238281 108.234375 -12.5 L 108.234375 -8.1875 C 108.234375 -5.894531 107.441406 -3.957031 105.859375 -2.375 C 104.285156 -0.789062 102.347656 0 100.046875 0 L 50.234375 0 C 47.929688 0 45.953125 -0.789062 44.296875 -2.375 C 42.648438 -3.957031 41.828125 -5.894531 41.828125 -8.1875 L 41.828125 -12.5 C 41.828125 -15.238281 40.535156 -16.609375 37.953125 -16.609375 L 33.640625 -16.609375 C 31.335938 -16.609375 29.359375 -17.394531 27.703125 -18.96875 C 26.046875 -20.550781 25.21875 -22.492188 25.21875 -24.796875 L 25.21875 -29.109375 C 25.21875 -31.835938 23.925781 -33.203125 21.34375 -33.203125 L 17.03125 -33.203125 C 14.726562 -33.203125 12.75 -33.992188 11.09375 -35.578125 C 9.445312 -37.160156 8.625 -39.097656 8.625 -41.390625 L 8.625 -124.40625 C 8.625 -126.851562 9.445312 -128.863281 11.09375 -130.4375 C 12.75 -132.019531 14.726562 -132.8125 17.03125 -132.8125 L 21.34375 -132.8125 C 22.488281 -132.8125 23.421875 -133.207031 24.140625 -134 C 24.859375 -134.789062 25.21875 -135.691406 25.21875 -136.703125 L 25.21875 -157.609375 C 25.21875 -159.910156 26.046875 -161.882812 27.703125 -163.53125 C 29.359375 -165.1875 31.335938 -166.015625 33.640625 -166.015625 L 100.046875 -166.015625 C 102.347656 -166.015625 104.285156 -165.1875 105.859375 -163.53125 C 107.441406 -161.882812 108.234375 -159.910156 108.234375 -157.609375 L 108.234375 -153.296875 C 108.234375 -152.285156 108.628906 -151.382812 109.421875 -150.59375 C 110.210938 -149.8125 111.109375 -149.421875 112.109375 -149.421875 L 116.640625 -149.421875 C 118.941406 -149.421875 120.882812 -148.628906 122.46875 -147.046875 C 124.050781 -145.460938 124.84375 -143.453125 124.84375 -141.015625 L 124.84375 -136.703125 C 124.84375 -135.691406 125.234375 -134.789062 126.015625 -134 C 126.804688 -133.207031 127.707031 -132.8125 128.71875 -132.8125 Z M 133.03125 -132.8125 "/></g></g></g><g fill="#ffffff" fill-opacity="1"><g transform="translate(412.30597, 483.993611)"><g><path d="M 101.984375 -16.609375 C 104.285156 -16.609375 106.257812 -15.816406 107.90625 -14.234375 C 109.5625 -12.648438 110.390625 -10.632812 110.390625 -8.1875 L 110.390625 -3.671875 C 110.390625 -2.660156 110.03125 -1.796875 109.3125 -1.078125 C 108.59375 -0.359375 107.734375 0 106.734375 0 L 35.578125 0 C 33.273438 0 31.332031 -0.789062 29.75 -2.375 C 28.164062 -3.957031 27.375 -5.894531 27.375 -8.1875 L 27.375 -12.71875 C 27.375 -15.3125 26.007812 -16.609375 23.28125 -16.609375 L 18.96875 -16.609375 C 16.675781 -16.609375 14.738281 -17.394531 13.15625 -18.96875 C 11.570312 -20.550781 10.78125 -22.492188 10.78125 -24.796875 L 10.78125 -157.828125 C 10.78125 -160.128906 11.570312 -162.066406 13.15625 -163.640625 C 14.738281 -165.222656 16.675781 -166.015625 18.96875 -166.015625 L 23.71875 -166.015625 C 24.71875 -166.015625 25.578125 -165.65625 26.296875 -164.9375 C 27.015625 -164.21875 27.375 -163.359375 27.375 -162.359375 L 27.375 -20.484375 C 27.375 -19.472656 27.769531 -18.570312 28.5625 -17.78125 C 29.351562 -17 30.253906 -16.609375 31.265625 -16.609375 Z M 101.984375 -16.609375 "/></g></g></g><g fill="#ffffff" fill-opacity="1"><g transform="translate(531.317293, 483.993611)"><g><path d="M 135.40625 -132.8125 C 137.707031 -132.8125 139.644531 -132.019531 141.21875 -130.4375 C 142.800781 -128.863281 143.59375 -126.851562 143.59375 -124.40625 L 143.59375 -91.203125 C 143.59375 -88.898438 142.800781 -86.957031 141.21875 -85.375 C 139.644531 -83.800781 137.707031 -83.015625 135.40625 -83.015625 L 114.484375 -83.015625 C 113.484375 -83.015625 112.550781 -82.617188 111.6875 -81.828125 C 110.820312 -81.035156 110.390625 -80.0625 110.390625 -78.90625 L 110.390625 -70.28125 C 110.390625 -69.28125 110.820312 -68.382812 111.6875 -67.59375 C 112.550781 -66.800781 113.484375 -66.40625 114.484375 -66.40625 L 118.796875 -66.40625 C 121.097656 -66.40625 123.039062 -65.613281 124.625 -64.03125 C 126.207031 -62.457031 127 -60.445312 127 -58 L 127 -20.484375 C 127 -19.472656 127.425781 -18.570312 128.28125 -17.78125 C 129.144531 -17 130.082031 -16.609375 131.09375 -16.609375 L 135.40625 -16.609375 C 137.707031 -16.609375 139.644531 -15.816406 141.21875 -14.234375 C 142.800781 -12.648438 143.59375 -10.632812 143.59375 -8.1875 L 143.59375 -3.671875 C 143.59375 -2.660156 143.269531 -1.796875 142.625 -1.078125 C 141.976562 -0.359375 141.082031 0 139.9375 0 L 135.40625 0 C 133.101562 0 131.125 -0.789062 129.46875 -2.375 C 127.820312 -3.957031 127 -5.894531 127 -8.1875 L 127 -12.71875 C 127 -13.875 126.640625 -14.8125 125.921875 -15.53125 C 125.203125 -16.25 124.265625 -16.609375 123.109375 -16.609375 L 118.796875 -16.609375 C 116.492188 -16.609375 114.515625 -17.394531 112.859375 -18.96875 C 111.210938 -20.550781 110.390625 -22.492188 110.390625 -24.796875 L 110.390625 -62.3125 C 110.390625 -65.039062 109.097656 -66.40625 106.515625 -66.40625 L 52.390625 -66.40625 C 50.085938 -66.40625 48.109375 -67.195312 46.453125 -68.78125 C 44.804688 -70.363281 43.984375 -72.300781 43.984375 -74.59375 L 43.984375 -78.90625 C 43.984375 -81.644531 42.691406 -83.015625 40.109375 -83.015625 L 35.796875 -83.015625 C 33.492188 -83.015625 31.515625 -83.800781 29.859375 -85.375 C 28.203125 -86.957031 27.375 -88.898438 27.375 -91.203125 L 27.375 -8.1875 C 27.375 -5.894531 26.582031 -3.957031 25 -2.375 C 23.425781 -0.789062 21.488281 0 19.1875 0 L 14.453125 0 C 13.441406 0 12.578125 -0.359375 11.859375 -1.078125 C 11.140625 -1.796875 10.78125 -2.660156 10.78125 -3.671875 L 10.78125 -157.609375 C 10.78125 -159.910156 11.601562 -161.882812 13.25 -163.53125 C 14.90625 -165.1875 16.882812 -166.015625 19.1875 -166.015625 L 102.203125 -166.015625 C 104.503906 -166.015625 106.441406 -165.1875 108.015625 -163.53125 C 109.597656 -161.882812 110.390625 -159.910156 110.390625 -157.609375 L 110.390625 -153.296875 C 110.390625 -152.285156 110.820312 -151.382812 111.6875 -150.59375 C 112.550781 -149.8125 113.484375 -149.421875 114.484375 -149.421875 L 118.796875 -149.421875 C 121.097656 -149.421875 123.039062 -148.59375 124.625 -146.9375 C 126.207031 -145.28125 127 -143.304688 127 -141.015625 L 127 -136.703125 C 127 -135.691406 127.425781 -134.789062 128.28125 -134 C 129.144531 -133.207031 130.082031 -132.8125 131.09375 -132.8125 Z M 110.390625 -91.203125 C 110.390625 -93.648438 111.210938 -95.660156 112.859375 -97.234375 C 114.515625 -98.816406 116.492188 -99.609375 118.796875 -99.609375 L 123.328125 -99.609375 C 125.773438 -99.609375 127 -100.832031 127 -103.28125 L 127 -128.71875 C 127 -129.863281 126.640625 -130.832031 125.921875 -131.625 C 125.203125 -132.414062 124.265625 -132.8125 123.109375 -132.8125 L 118.796875 -132.8125 C 116.492188 -132.8125 114.515625 -133.601562 112.859375 -135.1875 C 111.210938 -136.769531 110.390625 -138.710938 110.390625 -141.015625 L 110.390625 -145.328125 C 110.390625 -146.472656 110.03125 -147.441406 109.3125 -148.234375 C 108.59375 -149.023438 107.660156 -149.421875 106.515625 -149.421875 L 31.046875 -149.421875 C 30.035156 -149.421875 29.171875 -149.0625 28.453125 -148.34375 C 27.734375 -147.625 27.375 -146.757812 27.375 -145.75 L 27.375 -103.28125 C 27.375 -102.269531 27.734375 -101.40625 28.453125 -100.6875 C 29.171875 -99.96875 30.035156 -99.609375 31.046875 -99.609375 L 35.796875 -99.609375 C 38.085938 -99.609375 40.023438 -98.816406 41.609375 -97.234375 C 43.191406 -95.660156 43.984375 -93.648438 43.984375 -91.203125 L 43.984375 -86.890625 C 43.984375 -85.878906 44.414062 -84.976562 45.28125 -84.1875 C 46.144531 -83.40625 47.078125 -83.015625 48.078125 -83.015625 L 106.515625 -83.015625 C 107.660156 -83.015625 108.59375 -83.40625 109.3125 -84.1875 C 110.03125 -84.976562 110.390625 -85.878906 110.390625 -86.890625 Z M 110.390625 -91.203125 "/></g></g></g><g fill="#ffffff" fill-opacity="1"><g transform="translate(679.117313, 430.515761)"><g><path d="M 20.90625 0.8125 C 17.050781 0.8125 13.707031 -0.0078125 10.875 -1.65625 C 8.050781 -3.3125 5.875 -5.578125 4.34375 -8.453125 C 2.8125 -11.335938 2.046875 -14.601562 2.046875 -18.25 C 2.046875 -21.894531 2.8125 -25.15625 4.34375 -28.03125 C 5.875 -30.914062 8.050781 -33.191406 10.875 -34.859375 C 13.707031 -36.523438 17.050781 -37.359375 20.90625 -37.359375 C 24.75 -37.359375 28.078125 -36.523438 30.890625 -34.859375 C 33.703125 -33.191406 35.875 -30.914062 37.40625 -28.03125 C 38.945312 -25.15625 39.71875 -21.894531 39.71875 -18.25 C 39.71875 -14.601562 38.945312 -11.335938 37.40625 -8.453125 C 35.875 -5.578125 33.703125 -3.3125 30.890625 -1.65625 C 28.078125 -0.0078125 24.75 0.8125 20.90625 0.8125 Z M 20.90625 -1.375 C 24.238281 -1.375 27.109375 -2.128906 29.515625 -3.640625 C 31.921875 -5.160156 33.769531 -7.195312 35.0625 -9.75 C 36.351562 -12.3125 37 -15.144531 37 -18.25 C 37 -21.382812 36.351562 -24.226562 35.0625 -26.78125 C 33.769531 -29.332031 31.921875 -31.363281 29.515625 -32.875 C 27.109375 -34.394531 24.238281 -35.15625 20.90625 -35.15625 C 17.5625 -35.15625 14.679688 -34.394531 12.265625 -32.875 C 9.847656 -31.363281 7.988281 -29.332031 6.6875 -26.78125 C 5.394531 -24.226562 4.75 -21.382812 4.75 -18.25 C 4.75 -15.144531 5.394531 -12.3125 6.6875 -9.75 C 7.988281 -7.195312 9.847656 -5.160156 12.265625 -3.640625 C 14.679688 -2.128906 17.5625 -1.375 20.90625 -1.375 Z M 26.265625 -21.359375 C 26.203125 -21.835938 26.015625 -22.414062 25.703125 -23.09375 C 25.398438 -23.78125 24.875 -24.382812 24.125 -24.90625 C 23.375 -25.4375 22.316406 -25.703125 20.953125 -25.703125 C 19.453125 -25.703125 18.265625 -25.359375 17.390625 -24.671875 C 16.523438 -23.992188 15.914062 -23.09375 15.5625 -21.96875 C 15.207031 -20.851562 15.03125 -19.613281 15.03125 -18.25 C 15.03125 -16.914062 15.207031 -15.6875 15.5625 -14.5625 C 15.914062 -13.4375 16.523438 -12.53125 17.390625 -11.84375 C 18.265625 -11.164062 19.453125 -10.828125 20.953125 -10.828125 C 22.316406 -10.828125 23.375 -11.082031 24.125 -11.59375 C 24.875 -12.113281 25.398438 -12.722656 25.703125 -13.421875 C 26.015625 -14.117188 26.203125 -14.722656 26.265625 -15.234375 L 30.8125 -15.234375 C 30.71875 -13.660156 30.273438 -12.234375 29.484375 -10.953125 C 28.703125 -9.679688 27.613281 -8.671875 26.21875 -7.921875 C 24.820312 -7.171875 23.148438 -6.796875 21.203125 -6.796875 C 18.921875 -6.796875 16.976562 -7.28125 15.375 -8.25 C 13.78125 -9.21875 12.554688 -10.5625 11.703125 -12.28125 C 10.847656 -14.007812 10.421875 -16 10.421875 -18.25 C 10.421875 -20.5 10.820312 -22.484375 11.625 -24.203125 C 12.425781 -25.921875 13.601562 -27.273438 15.15625 -28.265625 C 16.707031 -29.253906 18.585938 -29.75 20.796875 -29.75 C 22.773438 -29.75 24.476562 -29.375 25.90625 -28.625 C 27.34375 -27.875 28.476562 -26.867188 29.3125 -25.609375 C 30.144531 -24.347656 30.644531 -22.929688 30.8125 -21.359375 Z M 26.265625 -21.359375 "/></g></g></g></svg>